<?xml version="1.0" encoding="UTF-8"?>
<svg xmlns="http://www.w3.org/2000/svg" xmlns:xlink="http://www.w3.org/1999/xlink" width="2112" height="2112" viewBox="0 0 2112 2112">
<rect x="-211.2" y="-211.2" width="2534.4" height="2534.4" fill="currentColor" fill-opacity="1"/>
<path fill-rule="nonzero" fill="rgb(0%, 0%, 0%)" fill-opacity="1" d="M 1603.308594 1644.816406 L 1360.058594 1644.816406 L 1360.058594 1158.320312 C 1360.058594 1091.089844 1305.660156 1036.691406 1238.429688 1036.691406 C 1171.199219 1036.691406 1116.820312 1091.089844 1116.820312 1158.320312 L 1116.820312 1644.816406 L 873.566406 1644.816406 L 873.566406 793.441406 L 1116.820312 793.441406 L 1116.820312 944.460938 C 1167 875.511719 1243.660156 793.441406 1329.660156 793.441406 C 1480.800781 793.441406 1603.308594 929.621094 1603.308594 1097.511719 L 1603.308594 1644.816406 "/>
<path fill-rule="nonzero" fill="rgb(0%, 0%, 0%)" fill-opacity="1" d="M 630.320312 710.429688 C 563.09375 710.429688 508.6875 656.039062 508.6875 588.808594 C 508.6875 521.589844 563.09375 467.179688 630.320312 467.179688 C 697.550781 467.179688 751.9375 521.589844 751.9375 588.808594 C 751.9375 656.039062 697.550781 710.429688 630.320312 710.429688 "/>
<path fill-rule="nonzero" fill="rgb(0%, 0%, 0%)" fill-opacity="1" d="M 751.9375 1644.816406 L 508.6875 1644.816406 L 508.6875 793.441406 L 751.9375 793.441406 L 751.9375 1644.816406 "/>
</svg>
